name new_emg_signals
nRows=91
nColumns=7
 
endheader
time	RGLTMED	RRF	RADDLONG	RBF	RTA	RGM
3.149999999999933	0.7897839324092175	0.913532258972694	0.8369122929097154	0.9625455769592824	0.8647973009256927	0.6971055872855957
3.1599999999999326	0.7901531191834862	0.9105651994175848	0.8393807393150184	0.9604285985937252	0.8640819283850572	0.6963400346485277
3.1699999999999324	0.7905703016197495	0.9075972048776906	0.8418313290244502	0.9582784654513092	0.8633839512909168	0.6956763388587082
3.179999999999932	0.7910342053848265	0.9046313421200772	0.8442659039513283	0.9560979397841242	0.8627050181402521	0.6951142347735882
3.189999999999932	0.7915435457109751	0.9016706409369296	0.8466862577896339	0.9538898157206024	0.8620466867629751	0.6946533573463438
3.199999999999932	0.7920970284780897	0.8987180882650234	0.8490941281488161	0.9516569125434228	0.8614104205539665	0.6942932402961949
3.2099999999999316	0.7926933511215714	0.8957766224516898	0.8514911890484026	0.9494020679332252	0.8607975850759952	0.6940333148518057
3.219999999999933	0.7933312033780499	0.8928491276870427	0.853879043795642	0.9471281312100212	0.8602094450471646	0.693872908587371
3.229999999999931	0.7940092678804682	0.8899384286202662	0.8562592182662854	0.9448379566030214	0.8596471617238987	0.6938112443696722
3.239999999999931	0.794726220614479	0.8870472851755948	0.8586331546055499	0.942534396578438	0.8591117906883482	0.6938474394331694
3.2499999999999307	0.7954807312486329	0.8841783875815765	0.8610022053633549	0.9402202952527964	0.8586042800474009	0.6939805045988146
3.2599999999999305	0.7962714633523098	0.8813343516254523	0.8633676280752363	0.9378984819170806	0.8581254690487247	0.6942093436514537
3.2699999999999303	0.7970970745164796	0.8785177141428575	0.865730580298125	0.9355717646947712	0.8576760871172536	0.6945327528894336
3.27999999999993	0.7979562163929572	0.875730928752132	0.8680921151086909	0.9332429243539708	0.857256753313534	0.6949494208589845
3.28999999999993	0.7988475346683864	0.8729763618418284	0.8704531770713791	0.9309147082911192	0.8568679762131584	0.6954579282849557
3.2999999999999297	0.7997696689882157	0.8702562888197681	0.8728145986834502	0.9285898247007024	0.8565101542047654	0.6960567482087355
3.3099999999999277	0.8007212528458498	0.8675728906316086	0.875177097304788	0.9262709369425524	0.8561835762030624	0.69674424634368
3.3199999999999292	0.8017009134514158	0.8649282505562927	0.8775412725806178	0.9239606581155768	0.8558884227724013	0.6975186816575306
3.329999999999929	0.8027072715951674	0.862324351284582	0.879907604365278	0.921661545844726	0.8556247676553419	0.6983782071901775
3.339999999999929	0.8037389415213652	0.8597630722852944	0.8822764511545659	0.9193760972869128	0.855392579698977	0.6993208711139853
3.3499999999999286	0.8047945308287567	0.8572461874621703	0.8846480490328932	0.9171067443607626	0.8551917251693195	0.7003446180431001
3.3599999999999284	0.8058726404149039	0.8547753631022117	0.8870225111397305	0.914855849205112	0.8550219704421745	0.7014472905977409
3.369999999999928	0.806971864480579	0.8523521561143645	0.889399827657748	0.912625699871778	0.8548829850569281	0.7026266312292474
3.379999999999928	0.8080907906102608	0.8499780125552072	0.89177986632272	0.9104185062595236	0.8547743451182134	0.7038802843110067
3.3899999999999277	0.809227999943562	0.847654266436316	0.8941623734524632	0.9082363962979068	0.8546955370286166	0.7052057984990346
3.3999999999999293	0.8103820674509278	0.845382138807114	0.8965469754891054	0.9060814123909908	0.854645961533705	0.7066006293643012
3.409999999999929	0.8115515623258086	0.843162737107034	0.8989331810459087	0.9039555081311932	0.8546249380587455	0.7080621422970369
3.419999999999929	0.8127350485033045	0.8409970547824794	0.9013203834470622	0.901860545293111	0.8546317093146217	0.7095876156824089
3.429999999999927	0.8139310853135537	0.8388859711659116	0.9037078637464504	0.8997982911156799	0.8546654461486118	0.7111742443468101
3.4399999999999267	0.8151382282755538	0.8368302516157053	0.9060947942094087	0.8977704158796408	0.8547252526141753	0.7128191432742069
3.4499999999999265	0.8163550300349067	0.8348305479159192	0.9084802422396798	0.8957784907851588	0.8548101712326514	0.714519351591941
3.4599999999999262	0.8175800414466624	0.8328873989347525	0.9108631747320132	0.893823986133016	0.8549191884180486	0.7162718368245709
3.469999999999926	0.8188118128028425	0.8310012315405508	0.9132424628289004	0.8919082698111843	0.8550512400343631	0.7180734994135074
3.479999999999924	0.8200488952031617	0.8291723617742591	0.9156168870578268	0.8900326060873288	0.8552052170526204	0.7199211774992369
3.489999999999924	0.8212898420663118	0.8274009962776018	0.9179851428231404	0.8881981547064093	0.8553799712729677	0.7218116519628177
3.4999999999999236	0.8225332107778315	0.8256872339756866	0.920345846224689	0.8864059702906981	0.8555743210753658	0.7237416517232271
3.509999999999925	0.8237775644689038	0.8240310680123957	0.9226975401742752	0.8846570020375614	0.8557870571613765	0.7257078592868084
3.519999999999925	0.8250214739189012	0.8224323879357512	0.9250387007810856	0.882952093708366	0.8560169482488783	0.7277069165443106
3.5299999999999248	0.8262635195725275	0.8208909821293373	0.927367743978274	0.8812919839010573	0.856262746682615	0.7297354308095562
3.5399999999999245	0.8275022936615346	0.8194065404842178	0.9296830323642896	0.8796773065993712	0.8565231939264133	0.7317899810921944
3.5499999999999243	0.8287364024193576	0.8179786573041926	0.9319828822339744	0.8781085919927563	0.8567970259076944	0.7338671245953645
3.559999999999924	0.8299644683763912	0.8166068344359809	0.9342655707756438	0.8765862675620696	0.8570829781893043	0.7359634034276015
3.569999999999924	0.8311851327225829	0.8152904846146165	0.936529343410774	0.8751106594263857	0.8573797909461294	0.7380753515166476
3.5799999999999237	0.832397057724615	0.8140289350137009	0.9387724212525248	0.8736819939456492	0.8576862137244864	0.7401995017114683
3.5899999999999253	0.8335989291845113	0.8128214309894664	0.9409930086586848	0.8723003995735619	0.8580010099626574	0.7423323930568165
3.599999999999925	0.8347894589274962	0.8116671400071097	0.9431893008543712	0.8709659089544551	0.8583229612522641	0.7444705782229107
3.609999999999925	0.8359673873071273	0.8105651557374342	0.9453594915997762	0.8696784612572086	0.8586508713235266	0.7466106310710012
3.619999999999923	0.837131485716845	0.80951450231084	0.947501780878048	0.8684379047382729	0.8589835697427411	0.7487491543340699
3.6299999999999226	0.8382805590971143	0.8085141387144665	0.9496143825780684	0.8672439995243564	0.8593199153169159	0.7508827873906686
3.6399999999999224	0.8394134484280108	0.807562963316804	0.9516955321466476	0.8660964206038752	0.8596587992071382	0.7530082141084091
3.649999999999922	0.8405290331969608	0.8066598185026912	0.9537434941844104	0.8649947610141699	0.8599991477577702	0.7551221707322613
3.659999999999922	0.8416262338320133	0.8058034954006014	0.9557565699588404	0.8639385352103156	0.8603399250523428	0.7572214537912305
3.66999999999992	0.8427040140912159	0.8049927386832335	0.9577331048065216	0.8629271825998505	0.8606801352090099	0.7593029279957353
3.67999999999992	0.8437613833989854	0.8042262514222949	0.959671495394998	0.8619600712271338	0.8610188244291692	0.761363534097318
3.6899999999999196	0.8447973991201921	0.8035026999783293	0.9615701968131408	0.861036501590573	0.8613550828127563	0.7634002966821063
3.699999999999921	0.845811168761823	0.8028207189073082	0.963427729457502	0.8601557105761963	0.8616880459533871	0.7654103318693383
3.709999999999921	0.8468018520922017	0.8021789158662606	0.9652426856808114	0.859316875492039	0.8620168963262843	0.767390854885554
3.7199999999999207	0.8477686631676433	0.8015758765009331	0.9670137361677212	0.8585191181891496	0.8623408644813906	0.7693391874842616
3.7299999999999205	0.8487108722561056	0.801010169299226	0.9687396360025868	0.8577615092564193	0.8626592300529712	0.7712527651793109
3.7399999999999203	0.8496278076478136	0.8004803503944732	0.9704192303942644	0.8570430722770549	0.8629713225953811	0.7731291442587758
3.74999999999992	0.8505188573425773	0.7999849683026802	0.9720514600231118	0.8563627881345821	0.8632765222523175	0.7749660085447034
3.75999999999992	0.851383470604741	0.7995225685773876	0.9736353659756112	0.8557195993557747	0.863574260264173	0.7767611758629873
3.7699999999999196	0.8522211593769836	0.7990916983650738	0.9751700942333982	0.8551124144769972	0.8638640193155556	0.7785126041870543
3.779999999999921	0.8530314995450393	0.7986909108438703	0.9766548996868292	0.8545401124197884	0.8641453337222018	0.780218397418335
3.789999999999921	0.8538141320447652	0.7983187695285616	0.9780891496484696	0.8540015468615602	0.8644177894542999	0.7818768107656971
3.7999999999999208	0.8545687638025924	0.7979738524252071	0.979472326847637	0.8534955505878417	0.8646810239916426	0.7834862556845322
3.809999999999919	0.8552951685002115	0.7976547560190006	0.980804031891953	0.8530209398123944	0.8649347260062874	0.7850453043350426
3.8199999999999186	0.8559931871533248	0.7973600990787737	0.9820839851849914	0.8525765184515399	0.8651786348700011	0.7865526935176709
3.8299999999999184	0.8566627284935022	0.797088526261594	0.9833120282906832	0.8521610823380483	0.865412539986136	0.7880073280428227
3.839999999999918	0.8573037691398777	0.7968387115009621	0.9844881247355276	0.8517734233586103	0.8656362799469363	0.7894082834918049
3.849999999999918	0.857916353546216	0.79660936116233	0.9856123602392	0.851412333497732	0.8658497415173374	0.7907548083271193
3.859999999999916	0.8585005937067993	0.7963992169495759	0.9866849423632728	0.8510766087690907	0.8660528584456096	0.7920463253117812
3.8699999999999157	0.859056668603545	0.796207058545315	0.987706199566836	0.8507650530146711	0.8662456101008137	0.7932824321985535
3.8799999999999173	0.8595848233759997	0.7960317059668078	0.9886765796575284	0.8504764815509619	0.8664280199373298	0.7944629016504909
3.889999999999917	0.8600853681954789	0.795872021618826	0.989596647627784	0.8502097246415603	0.8666001537878472	0.7955876803546308
3.899999999999917	0.8605586768268341	0.7957269120267537	0.990467082870378	0.8499636307751277	0.866762117987704	0.7966568872938216
3.9099999999999167	0.861005184865305	0.7955953292381555	0.991288675775025	0.8497370697281346	0.8669140573347063	0.7976708111501918
3.9199999999999164	0.8614253876430719	0.7954762718888759	0.9920623237180906	0.8495289353927444	0.867056152889992	0.7986299068282626
3.9299999999999162	0.861819837806519	0.7953687859385443	0.992789026468696	0.8493381483524133	0.8671886196270117	0.799534791102083
3.939999999999916	0.8621891425718833	0.7952719650878907	0.9934698810446808	0.84916365819098	0.8673117039374783	0.8003862374047802
3.949999999999916	0.8625339606728182	0.7951849508949219	0.9941060760597784	0.8490044455259009	0.8674256810061166	0.8011851697890874
3.9599999999999156	0.8628549990184976	0.7951069326091058	0.9946988856086584	0.8488595237619572	0.8675308520690101	0.8019326560945789
3.969999999999917	0.8631530090851306	0.7950371467433031	0.9952496627393764	0.8487279405673621	0.8676275415741556	0.8026299003629189
3.979999999999917	0.8634287830656263	0.7949748764041357	0.9957598325636092	0.8486087790796154	0.8677160942652765	0.8032782345473618
3.9899999999999167	0.8636831498038126	0.794919450402074	0.9962308850546916	0.8485011588525192	0.8677968722116859	0.8038791095678113
3.9999999999999147	0.863916970541649	0.7948702421636239	0.996664367582443	0.8484042365590504	0.867870251807683	0.8044340857685083
4.0099999999999145	0.8641311345094314	0.7948266684686588	0.997061877232274	0.8483172064659932	0.8679366207652962	0.8049448228399642
4.019999999999914	0.8643265543901454	0.7947881880361026	0.9974250529539586	0.8482393006958507	0.8679963751241477	0.8054130692696796
4.029999999999914	0.8645041616893175	0.794754299980513	0.997755567583198	0.8481697892897141	0.8680499163021657	0.8058406513872183
4.039999999999912	0.8646649020399971	0.7947245421606433	0.998055119777063	0.8481079800834149	0.8680976482104746	0.8062294620693614
4.049999999999912	0.8648097304712732	0.7946984894397295	0.9983254259028246	0.8480532184091346	0.8681399744551845	0.8065814491720166
